<?xml version="1.0" encoding="utf-8" standalone="no"?>
<!DOCTYPE svg PUBLIC "-//W3C//DTD SVG 1.1//EN"
  "http://www.w3.org/Graphics/SVG/1.1/DTD/svg11.dtd">
<svg xmlns:xlink="http://www.w3.org/1999/xlink" width="720pt" height="504pt" viewBox="0 0 720 504" xmlns="http://www.w3.org/2000/svg" version="1.1">
 <metadata>
  <rdf:RDF xmlns:dc="http://purl.org/dc/elements/1.1/" xmlns:cc="http://creativecommons.org/ns#" xmlns:rdf="http://www.w3.org/1999/02/22-rdf-syntax-ns#">
   <cc:Work>
    <dc:type rdf:resource="http://purl.org/dc/dcmitype/StillImage"/>
    <dc:date>2025-03-29T01:01:36.308643</dc:date>
    <dc:format>image/svg+xml</dc:format>
    <dc:creator>
     <cc:Agent>
      <dc:title>Matplotlib v3.10.1, https://matplotlib.org/</dc:title>
     </cc:Agent>
    </dc:creator>
   </cc:Work>
  </rdf:RDF>
 </metadata>
 <defs>
  <style type="text/css">*{stroke-linejoin: round; stroke-linecap: butt}</style>
 </defs>
 <g id="figure_1">
  <g id="patch_1">
   <path d="M 0 504 
L 720 504 
L 720 0 
L 0 0 
z
" style="fill: #ffffff"/>
  </g>
  <g id="axes_1">
   <g id="patch_2">
    <path d="M 355.885616 441.925407 
Q 385.588515 399.354474 414.651664 357.700448 
" clip-path="url(#pc536e8234d)" style="fill: none; stroke: #808080; stroke-linecap: round"/>
    <path d="M 410.722608 359.836453 
L 414.651664 357.700448 
L 414.003034 362.125296 
z
" clip-path="url(#pc536e8234d)" style="fill: #808080; stroke: #808080; stroke-linecap: round"/>
   </g>
   <g id="patch_3">
    <path d="M 322.993445 450.464064 
Q 213.537172 397.085883 105.085807 344.197762 
" clip-path="url(#pc536e8234d)" style="fill: none; stroke: #808080; stroke-linecap: round"/>
    <path d="M 107.80443 347.74869 
L 105.085807 344.197762 
L 109.557723 344.153421 
z
" clip-path="url(#pc536e8234d)" style="fill: #808080; stroke: #808080; stroke-linecap: round"/>
   </g>
   <g id="patch_4">
    <path d="M 363.240817 450.573112 
Q 481.025213 393.925909 597.802044 337.763282 
" clip-path="url(#pc536e8234d)" style="fill: none; stroke: #808080; stroke-linecap: round"/>
    <path d="M 593.330436 337.694575 
L 597.802044 337.763282 
L 595.064113 341.299344 
z
" clip-path="url(#pc536e8234d)" style="fill: #808080; stroke: #808080; stroke-linecap: round"/>
   </g>
   <g id="patch_5">
    <path d="M 360.019975 445.655563 
Q 489.060896 334.306252 617.255354 223.687353 
" clip-path="url(#pc536e8234d)" style="fill: none; stroke: #808080; stroke-linecap: round"/>
    <path d="M 612.920358 224.786355 
L 617.255354 223.687353 
L 615.533558 227.814751 
z
" clip-path="url(#pc536e8234d)" style="fill: #808080; stroke: #808080; stroke-linecap: round"/>
   </g>
   <g id="patch_6">
    <path d="M 328.861643 443.014408 
Q 319.413022 431.559134 310.67581 420.966355 
" clip-path="url(#pc536e8234d)" style="fill: none; stroke: #808080; stroke-linecap: round"/>
    <path d="M 311.678147 425.324717 
L 310.67581 420.966355 
L 314.763902 422.779502 
z
" clip-path="url(#pc536e8234d)" style="fill: #808080; stroke: #808080; stroke-linecap: round"/>
   </g>
   <g id="patch_7">
    <path d="M 335.007087 439.418991 
Q 270.655687 273.458713 206.708484 108.540848 
" clip-path="url(#pc536e8234d)" style="fill: none; stroke: #808080; stroke-linecap: round"/>
    <path d="M 206.28986 112.993348 
L 206.708484 108.540848 
L 210.019309 111.547247 
z
" clip-path="url(#pc536e8234d)" style="fill: #808080; stroke: #808080; stroke-linecap: round"/>
   </g>
   <g id="patch_8">
    <path d="M 340.337588 438.072565 
Q 321.207059 283.826207 302.214141 130.689381 
" clip-path="url(#pc536e8234d)" style="fill: none; stroke: #808080; stroke-linecap: round"/>
    <path d="M 300.721679 134.905133 
L 302.214141 130.689381 
L 304.691265 134.412802 
z
" clip-path="url(#pc536e8234d)" style="fill: #808080; stroke: #808080; stroke-linecap: round"/>
   </g>
   <g id="patch_9">
    <path d="M 348.422382 438.546584 
Q 391.298924 263.919195 433.908871 90.377589 
" clip-path="url(#pc536e8234d)" style="fill: none; stroke: #808080; stroke-linecap: round"/>
    <path d="M 431.012765 93.785311 
L 433.908871 90.377589 
L 434.897384 94.739108 
z
" clip-path="url(#pc536e8234d)" style="fill: #808080; stroke: #808080; stroke-linecap: round"/>
   </g>
   <g id="patch_10">
    <path d="M 327.074098 444.659925 
Q 251.739619 371.260188 177.205925 298.640671 
" clip-path="url(#pc536e8234d)" style="fill: none; stroke: #808080; stroke-linecap: round"/>
    <path d="M 178.675203 302.864559 
L 177.205925 298.640671 
L 181.466601 299.999581 
z
" clip-path="url(#pc536e8234d)" style="fill: #808080; stroke: #808080; stroke-linecap: round"/>
   </g>
   <g id="patch_11">
    <path d="M 451.932418 181.721126 
Q 441.690874 249.032432 431.617506 315.238425 
" clip-path="url(#pc536e8234d)" style="fill: none; stroke: #808080; stroke-linecap: round"/>
    <path d="M 434.196433 311.584778 
L 431.617506 315.238425 
L 430.241945 310.983095 
z
" clip-path="url(#pc536e8234d)" style="fill: #808080; stroke: #808080; stroke-linecap: round"/>
   </g>
   <g id="patch_12">
    <path d="M 470.901867 175.63207 
Q 537.13041 243.601582 602.578705 310.770335 
" clip-path="url(#pc536e8234d)" style="fill: none; stroke: #808080; stroke-linecap: round"/>
    <path d="M 601.219647 306.509706 
L 602.578705 310.770335 
L 598.354767 309.301205 
z
" clip-path="url(#pc536e8234d)" style="fill: #808080; stroke: #808080; stroke-linecap: round"/>
   </g>
   <g id="patch_13">
    <path d="M 465.958626 179.271126 
Q 478.099923 201.651829 489.708094 223.049793 
" clip-path="url(#pc536e8234d)" style="fill: none; stroke: #808080; stroke-linecap: round"/>
    <path d="M 489.558703 218.580153 
L 489.708094 223.049793 
L 486.042747 220.487522 
z
" clip-path="url(#pc536e8234d)" style="fill: #808080; stroke: #808080; stroke-linecap: round"/>
   </g>
   <g id="patch_14">
    <path d="M 477.488997 156.885236 
Q 529.487374 150.487668 580.376084 144.226628 
" clip-path="url(#pc536e8234d)" style="fill: none; stroke: #808080; stroke-linecap: round"/>
    <path d="M 576.161793 142.730049 
L 580.376084 144.226628 
L 576.650246 146.700113 
z
" clip-path="url(#pc536e8234d)" style="fill: #808080; stroke: #808080; stroke-linecap: round"/>
   </g>
   <g id="patch_15">
    <path d="M 335.297165 66.091806 
Q 338.972539 251.998502 342.625815 436.787382 
" clip-path="url(#pc536e8234d)" style="fill: none; stroke: #808080; stroke-linecap: round"/>
    <path d="M 344.546359 432.748631 
L 342.625815 436.787382 
L 340.547141 432.827696 
z
" clip-path="url(#pc536e8234d)" style="fill: #808080; stroke: #808080; stroke-linecap: round"/>
   </g>
   <g id="patch_16">
    <path d="M 344.40294 63.956557 
Q 419.883138 223.81467 494.885971 382.661783 
" clip-path="url(#pc536e8234d)" style="fill: none; stroke: #808080; stroke-linecap: round"/>
    <path d="M 494.986634 378.19078 
L 494.885971 382.661783 
L 491.369567 379.89865 
z
" clip-path="url(#pc536e8234d)" style="fill: #808080; stroke: #808080; stroke-linecap: round"/>
   </g>
   <g id="patch_17">
    <path d="M 324.14265 63.36276 
Q 243.406104 211.286173 163.205191 358.228211 
" clip-path="url(#pc536e8234d)" style="fill: none; stroke: #808080; stroke-linecap: round"/>
    <path d="M 166.87707 355.675309 
L 163.205191 358.228211 
L 163.365997 353.758967 
z
" clip-path="url(#pc536e8234d)" style="fill: #808080; stroke: #808080; stroke-linecap: round"/>
   </g>
   <g id="patch_18">
    <path d="M 331.199607 65.793032 
Q 322.529009 118.110845 314.041209 169.325669 
" clip-path="url(#pc536e8234d)" style="fill: none; stroke: #808080; stroke-linecap: round"/>
    <path d="M 316.668292 165.706494 
L 314.041209 169.325669 
L 312.722118 165.052497 
z
" clip-path="url(#pc536e8234d)" style="fill: #808080; stroke: #808080; stroke-linecap: round"/>
   </g>
   <g id="patch_19">
    <path d="M 317.494368 57.824891 
Q 248.700751 113.655089 180.775255 168.780753 
" clip-path="url(#pc536e8234d)" style="fill: none; stroke: #808080; stroke-linecap: round"/>
    <path d="M 185.141444 167.813082 
L 180.775255 168.780753 
L 182.620831 164.707199 
z
" clip-path="url(#pc536e8234d)" style="fill: #808080; stroke: #808080; stroke-linecap: round"/>
   </g>
   <g id="patch_20">
    <path d="M 349.142684 60.940194 
Q 417.880304 143.712332 485.903642 225.624351 
" clip-path="url(#pc536e8234d)" style="fill: none; stroke: #808080; stroke-linecap: round"/>
    <path d="M 484.886783 221.269354 
L 485.903642 225.624351 
L 481.809529 223.824841 
z
" clip-path="url(#pc536e8234d)" style="fill: #808080; stroke: #808080; stroke-linecap: round"/>
   </g>
   <g id="patch_21">
    <path d="M 355.869361 51.366882 
Q 469.264205 92.546468 581.608164 133.344422 
" clip-path="url(#pc536e8234d)" style="fill: none; stroke: #808080; stroke-linecap: round"/>
    <path d="M 578.531088 130.099179 
L 581.608164 133.344422 
L 577.165724 133.858937 
z
" clip-path="url(#pc536e8234d)" style="fill: #808080; stroke: #808080; stroke-linecap: round"/>
   </g>
   <g id="patch_22">
    <path d="M 618.963536 285.932987 
C 648.792456 285.932987 648.792456 327.585879 618.963536 327.585879 
C 589.134616 327.585879 589.134616 285.932987 617.845502 285.932987 
" clip-path="url(#pc536e8234d)" style="fill: none; stroke: #808080; stroke-linecap: round"/>
    <path d="M 613.845502 283.932987 
L 617.845502 285.932987 
L 613.845502 287.932987 
z
" clip-path="url(#pc536e8234d)" style="fill: #808080; stroke: #808080; stroke-linecap: round"/>
   </g>
   <g id="patch_23">
    <path d="M 288.50403 187.073607 
Q 207.792823 166.940406 128.166408 147.077804 
" clip-path="url(#pc536e8234d)" style="fill: none; stroke: #808080; stroke-linecap: round"/>
    <path d="M 131.563421 149.986465 
L 128.166408 147.077804 
L 132.531544 146.105391 
z
" clip-path="url(#pc536e8234d)" style="fill: #808080; stroke: #808080; stroke-linecap: round"/>
   </g>
   <g id="patch_24">
    <path d="M 522.970701 247.29682 
Q 579.210433 256.497494 634.346798 265.517661 
" clip-path="url(#pc536e8234d)" style="fill: none; stroke: #808080; stroke-linecap: round"/>
    <path d="M 630.722178 262.898095 
L 634.346798 265.517661 
L 630.076373 266.845618 
z
" clip-path="url(#pc536e8234d)" style="fill: #808080; stroke: #808080; stroke-linecap: round"/>
   </g>
   <g id="patch_25">
    <path d="M 613.386313 213.965574 
Q 472.409013 250.553191 332.513895 286.859951 
" clip-path="url(#pc536e8234d)" style="fill: none; stroke: #808080; stroke-linecap: round"/>
    <path d="M 336.888042 287.790993 
L 332.513895 286.859951 
L 335.883217 283.919259 
z
" clip-path="url(#pc536e8234d)" style="fill: #808080; stroke: #808080; stroke-linecap: round"/>
   </g>
   <g id="patch_26">
    <path d="M 84.027569 248.83843 
Q 325.996677 316.019925 566.888503 382.902317 
" clip-path="url(#pc536e8234d)" style="fill: none; stroke: #808080; stroke-linecap: round"/>
    <path d="M 563.56935 379.905115 
L 566.888503 382.902317 
L 562.49925 383.759319 
z
" clip-path="url(#pc536e8234d)" style="fill: #808080; stroke: #808080; stroke-linecap: round"/>
   </g>
   <g id="patch_27">
    <path d="M 84.354089 238.220296 
Q 258.888172 201.235585 432.328507 164.482645 
" clip-path="url(#pc536e8234d)" style="fill: none; stroke: #808080; stroke-linecap: round"/>
    <path d="M 428.000795 163.3553 
L 432.328507 164.482645 
L 428.830004 167.268408 
z
" clip-path="url(#pc536e8234d)" style="fill: #808080; stroke: #808080; stroke-linecap: round"/>
   </g>
   <g id="patch_28">
    <path d="M 220.579781 86.720741 
Q 366.328443 87.195333 510.959077 87.666285 
" clip-path="url(#pc536e8234d)" style="fill: none; stroke: #808080; stroke-linecap: round"/>
    <path d="M 506.965611 85.653271 
L 510.959077 87.666285 
L 506.952586 89.65325 
z
" clip-path="url(#pc536e8234d)" style="fill: #808080; stroke: #808080; stroke-linecap: round"/>
   </g>
   <g id="patch_29">
    <path d="M 198.219465 44.995039 
C 228.048385 44.995039 228.048385 86.64793 198.219465 86.64793 
C 168.390545 86.64793 168.390545 44.995039 197.101431 44.995039 
" clip-path="url(#pc536e8234d)" style="fill: none; stroke: #808080; stroke-linecap: round"/>
    <path d="M 193.101431 42.995039 
L 197.101431 44.995039 
L 193.101431 46.995039 
z
" clip-path="url(#pc536e8234d)" style="fill: #808080; stroke: #808080; stroke-linecap: round"/>
   </g>
   <g id="patch_30">
    <path d="M 193.927913 419.496922 
Q 134.877746 340.145013 76.49504 261.690042 
" clip-path="url(#pc536e8234d)" style="fill: none; stroke: #808080; stroke-linecap: round"/>
    <path d="M 77.27853 266.093012 
L 76.49504 261.690042 
L 80.48751 263.705032 
z
" clip-path="url(#pc536e8234d)" style="fill: #808080; stroke: #808080; stroke-linecap: round"/>
   </g>
   <g id="patch_31">
    <path d="M 166.855246 303.656194 
Q 183.831439 359.842086 200.484264 414.957729 
" clip-path="url(#pc536e8234d)" style="fill: none; stroke: #808080; stroke-linecap: round"/>
    <path d="M 201.241865 410.550231 
L 200.484264 414.957729 
L 197.412826 411.70715 
z
" clip-path="url(#pc536e8234d)" style="fill: #808080; stroke: #808080; stroke-linecap: round"/>
   </g>
   <g id="PathCollection_1">
    <defs>
     <path id="mca1e106ba2" d="M 0 22.36068 
C 5.930122 22.36068 11.618159 20.004617 15.811388 15.811388 
C 20.004617 11.618159 22.36068 5.930122 22.36068 0 
C 22.36068 -5.930122 20.004617 -11.618159 15.811388 -15.811388 
C 11.618159 -20.004617 5.930122 -22.36068 0 -22.36068 
C -5.930122 -22.36068 -11.618159 -20.004617 -15.811388 -15.811388 
C -20.004617 -11.618159 -22.36068 -5.930122 -22.36068 0 
C -22.36068 5.930122 -20.004617 11.618159 -15.811388 15.811388 
C -11.618159 20.004617 -5.930122 22.36068 0 22.36068 
z
" style="stroke: #add8e6"/>
    </defs>
    <g clip-path="url(#pc536e8234d)">
     <use xlink:href="#mca1e106ba2" x="428.086544" y="338.445244" style="fill: #add8e6; stroke: #add8e6"/>
     <use xlink:href="#mca1e106ba2" x="343.089956" y="460.264463" style="fill: #add8e6; stroke: #add8e6"/>
     <use xlink:href="#mca1e106ba2" x="455.295792" y="159.615754" style="fill: #add8e6; stroke: #add8e6"/>
     <use xlink:href="#mca1e106ba2" x="83.982156" y="333.906214" style="fill: #add8e6; stroke: #add8e6"/>
     <use xlink:href="#mca1e106ba2" x="334.855182" y="43.735537" style="fill: #add8e6; stroke: #add8e6"/>
     <use xlink:href="#mca1e106ba2" x="450.400314" y="459.618032" style="fill: #add8e6; stroke: #add8e6"/>
     <use xlink:href="#mca1e106ba2" x="618.963536" y="327.585879" style="fill: #add8e6; stroke: #add8e6"/>
     <use xlink:href="#mca1e106ba2" x="504.911404" y="403.894462" style="fill: #add8e6; stroke: #add8e6"/>
     <use xlink:href="#mca1e106ba2" x="151.956531" y="378.837715" style="fill: #add8e6; stroke: #add8e6"/>
     <use xlink:href="#mca1e106ba2" x="310.20281" y="192.486311" style="fill: #add8e6; stroke: #add8e6"/>
     <use xlink:href="#mca1e106ba2" x="162.545887" y="183.574992" style="fill: #add8e6; stroke: #add8e6"/>
     <use xlink:href="#mca1e106ba2" x="500.90338" y="243.686663" style="fill: #add8e6; stroke: #add8e6"/>
     <use xlink:href="#mca1e106ba2" x="603.67917" y="141.359557" style="fill: #add8e6; stroke: #add8e6"/>
     <use xlink:href="#mca1e106ba2" x="657.520661" y="269.308845" style="fill: #add8e6; stroke: #add8e6"/>
     <use xlink:href="#mca1e106ba2" x="105.384829" y="141.394998" style="fill: #add8e6; stroke: #add8e6"/>
     <use xlink:href="#mca1e106ba2" x="309.783521" y="292.759129" style="fill: #add8e6; stroke: #add8e6"/>
     <use xlink:href="#mca1e106ba2" x="635.031992" y="208.347906" style="fill: #add8e6; stroke: #add8e6"/>
     <use xlink:href="#mca1e106ba2" x="295.737388" y="402.855382" style="fill: #add8e6; stroke: #add8e6"/>
     <use xlink:href="#mca1e106ba2" x="589.512288" y="389.183696" style="fill: #add8e6; stroke: #add8e6"/>
     <use xlink:href="#mca1e106ba2" x="62.479339" y="242.855673" style="fill: #add8e6; stroke: #add8e6"/>
     <use xlink:href="#mca1e106ba2" x="534.43735" y="87.742736" style="fill: #add8e6; stroke: #add8e6"/>
     <use xlink:href="#mca1e106ba2" x="198.219465" y="86.64793" style="fill: #add8e6; stroke: #add8e6"/>
     <use xlink:href="#mca1e106ba2" x="299.324533" y="107.390938" style="fill: #add8e6; stroke: #add8e6"/>
     <use xlink:href="#mca1e106ba2" x="439.507627" y="67.575001" style="fill: #add8e6; stroke: #add8e6"/>
     <use xlink:href="#mca1e106ba2" x="207.274931" y="437.432711" style="fill: #add8e6; stroke: #add8e6"/>
     <use xlink:href="#mca1e106ba2" x="160.389298" y="282.25593" style="fill: #add8e6; stroke: #add8e6"/>
    </g>
   </g>
   <g id="text_1">
    <g clip-path="url(#pc536e8234d)">
     <!-- sub_10014B4 -->
     <g transform="translate(394.120919 341.065557) scale(0.1 -0.1)">
      <defs>
       <path id="DejaVuSans-73" d="M 2834 3397 
L 2834 2853 
Q 2591 2978 2328 3040 
Q 2066 3103 1784 3103 
Q 1356 3103 1142 2972 
Q 928 2841 928 2578 
Q 928 2378 1081 2264 
Q 1234 2150 1697 2047 
L 1894 2003 
Q 2506 1872 2764 1633 
Q 3022 1394 3022 966 
Q 3022 478 2636 193 
Q 2250 -91 1575 -91 
Q 1294 -91 989 -36 
Q 684 19 347 128 
L 347 722 
Q 666 556 975 473 
Q 1284 391 1588 391 
Q 1994 391 2212 530 
Q 2431 669 2431 922 
Q 2431 1156 2273 1281 
Q 2116 1406 1581 1522 
L 1381 1569 
Q 847 1681 609 1914 
Q 372 2147 372 2553 
Q 372 3047 722 3315 
Q 1072 3584 1716 3584 
Q 2034 3584 2315 3537 
Q 2597 3491 2834 3397 
z
" transform="scale(0.015625)"/>
       <path id="DejaVuSans-75" d="M 544 1381 
L 544 3500 
L 1119 3500 
L 1119 1403 
Q 1119 906 1312 657 
Q 1506 409 1894 409 
Q 2359 409 2629 706 
Q 2900 1003 2900 1516 
L 2900 3500 
L 3475 3500 
L 3475 0 
L 2900 0 
L 2900 538 
Q 2691 219 2414 64 
Q 2138 -91 1772 -91 
Q 1169 -91 856 284 
Q 544 659 544 1381 
z
M 1991 3584 
L 1991 3584 
z
" transform="scale(0.015625)"/>
       <path id="DejaVuSans-62" d="M 3116 1747 
Q 3116 2381 2855 2742 
Q 2594 3103 2138 3103 
Q 1681 3103 1420 2742 
Q 1159 2381 1159 1747 
Q 1159 1113 1420 752 
Q 1681 391 2138 391 
Q 2594 391 2855 752 
Q 3116 1113 3116 1747 
z
M 1159 2969 
Q 1341 3281 1617 3432 
Q 1894 3584 2278 3584 
Q 2916 3584 3314 3078 
Q 3713 2572 3713 1747 
Q 3713 922 3314 415 
Q 2916 -91 2278 -91 
Q 1894 -91 1617 61 
Q 1341 213 1159 525 
L 1159 0 
L 581 0 
L 581 4863 
L 1159 4863 
L 1159 2969 
z
" transform="scale(0.015625)"/>
       <path id="DejaVuSans-5f" d="M 3263 -1063 
L 3263 -1509 
L -63 -1509 
L -63 -1063 
L 3263 -1063 
z
" transform="scale(0.015625)"/>
       <path id="DejaVuSans-31" d="M 794 531 
L 1825 531 
L 1825 4091 
L 703 3866 
L 703 4441 
L 1819 4666 
L 2450 4666 
L 2450 531 
L 3481 531 
L 3481 0 
L 794 0 
L 794 531 
z
" transform="scale(0.015625)"/>
       <path id="DejaVuSans-30" d="M 2034 4250 
Q 1547 4250 1301 3770 
Q 1056 3291 1056 2328 
Q 1056 1369 1301 889 
Q 1547 409 2034 409 
Q 2525 409 2770 889 
Q 3016 1369 3016 2328 
Q 3016 3291 2770 3770 
Q 2525 4250 2034 4250 
z
M 2034 4750 
Q 2819 4750 3233 4129 
Q 3647 3509 3647 2328 
Q 3647 1150 3233 529 
Q 2819 -91 2034 -91 
Q 1250 -91 836 529 
Q 422 1150 422 2328 
Q 422 3509 836 4129 
Q 1250 4750 2034 4750 
z
" transform="scale(0.015625)"/>
       <path id="DejaVuSans-34" d="M 2419 4116 
L 825 1625 
L 2419 1625 
L 2419 4116 
z
M 2253 4666 
L 3047 4666 
L 3047 1625 
L 3713 1625 
L 3713 1100 
L 3047 1100 
L 3047 0 
L 2419 0 
L 2419 1100 
L 313 1100 
L 313 1709 
L 2253 4666 
z
" transform="scale(0.015625)"/>
       <path id="DejaVuSans-42" d="M 1259 2228 
L 1259 519 
L 2272 519 
Q 2781 519 3026 730 
Q 3272 941 3272 1375 
Q 3272 1813 3026 2020 
Q 2781 2228 2272 2228 
L 1259 2228 
z
M 1259 4147 
L 1259 2741 
L 2194 2741 
Q 2656 2741 2882 2914 
Q 3109 3088 3109 3444 
Q 3109 3797 2882 3972 
Q 2656 4147 2194 4147 
L 1259 4147 
z
M 628 4666 
L 2241 4666 
Q 2963 4666 3353 4366 
Q 3744 4066 3744 3513 
Q 3744 3084 3544 2831 
Q 3344 2578 2956 2516 
Q 3422 2416 3680 2098 
Q 3938 1781 3938 1306 
Q 3938 681 3513 340 
Q 3088 0 2303 0 
L 628 0 
L 628 4666 
z
" transform="scale(0.015625)"/>
      </defs>
      <use xlink:href="#DejaVuSans-73"/>
      <use xlink:href="#DejaVuSans-75" transform="translate(52.099609 0)"/>
      <use xlink:href="#DejaVuSans-62" transform="translate(115.478516 0)"/>
      <use xlink:href="#DejaVuSans-5f" transform="translate(178.955078 0)"/>
      <use xlink:href="#DejaVuSans-31" transform="translate(228.955078 0)"/>
      <use xlink:href="#DejaVuSans-30" transform="translate(292.578125 0)"/>
      <use xlink:href="#DejaVuSans-30" transform="translate(356.201172 0)"/>
      <use xlink:href="#DejaVuSans-31" transform="translate(419.824219 0)"/>
      <use xlink:href="#DejaVuSans-34" transform="translate(483.447266 0)"/>
      <use xlink:href="#DejaVuSans-42" transform="translate(547.070312 0)"/>
      <use xlink:href="#DejaVuSans-34" transform="translate(615.673828 0)"/>
     </g>
    </g>
   </g>
   <g id="text_2">
    <g clip-path="url(#pc536e8234d)">
     <!-- sub_1001592 -->
     <g transform="translate(309.37355 462.884776) scale(0.1 -0.1)">
      <defs>
       <path id="DejaVuSans-35" d="M 691 4666 
L 3169 4666 
L 3169 4134 
L 1269 4134 
L 1269 2991 
Q 1406 3038 1543 3061 
Q 1681 3084 1819 3084 
Q 2600 3084 3056 2656 
Q 3513 2228 3513 1497 
Q 3513 744 3044 326 
Q 2575 -91 1722 -91 
Q 1428 -91 1123 -41 
Q 819 9 494 109 
L 494 744 
Q 775 591 1075 516 
Q 1375 441 1709 441 
Q 2250 441 2565 725 
Q 2881 1009 2881 1497 
Q 2881 1984 2565 2268 
Q 2250 2553 1709 2553 
Q 1456 2553 1204 2497 
Q 953 2441 691 2322 
L 691 4666 
z
" transform="scale(0.015625)"/>
       <path id="DejaVuSans-39" d="M 703 97 
L 703 672 
Q 941 559 1184 500 
Q 1428 441 1663 441 
Q 2288 441 2617 861 
Q 2947 1281 2994 2138 
Q 2813 1869 2534 1725 
Q 2256 1581 1919 1581 
Q 1219 1581 811 2004 
Q 403 2428 403 3163 
Q 403 3881 828 4315 
Q 1253 4750 1959 4750 
Q 2769 4750 3195 4129 
Q 3622 3509 3622 2328 
Q 3622 1225 3098 567 
Q 2575 -91 1691 -91 
Q 1453 -91 1209 -44 
Q 966 3 703 97 
z
M 1959 2075 
Q 2384 2075 2632 2365 
Q 2881 2656 2881 3163 
Q 2881 3666 2632 3958 
Q 2384 4250 1959 4250 
Q 1534 4250 1286 3958 
Q 1038 3666 1038 3163 
Q 1038 2656 1286 2365 
Q 1534 2075 1959 2075 
z
" transform="scale(0.015625)"/>
       <path id="DejaVuSans-32" d="M 1228 531 
L 3431 531 
L 3431 0 
L 469 0 
L 469 531 
Q 828 903 1448 1529 
Q 2069 2156 2228 2338 
Q 2531 2678 2651 2914 
Q 2772 3150 2772 3378 
Q 2772 3750 2511 3984 
Q 2250 4219 1831 4219 
Q 1534 4219 1204 4116 
Q 875 4013 500 3803 
L 500 4441 
Q 881 4594 1212 4672 
Q 1544 4750 1819 4750 
Q 2544 4750 2975 4387 
Q 3406 4025 3406 3419 
Q 3406 3131 3298 2873 
Q 3191 2616 2906 2266 
Q 2828 2175 2409 1742 
Q 1991 1309 1228 531 
z
" transform="scale(0.015625)"/>
      </defs>
      <use xlink:href="#DejaVuSans-73"/>
      <use xlink:href="#DejaVuSans-75" transform="translate(52.099609 0)"/>
      <use xlink:href="#DejaVuSans-62" transform="translate(115.478516 0)"/>
      <use xlink:href="#DejaVuSans-5f" transform="translate(178.955078 0)"/>
      <use xlink:href="#DejaVuSans-31" transform="translate(228.955078 0)"/>
      <use xlink:href="#DejaVuSans-30" transform="translate(292.578125 0)"/>
      <use xlink:href="#DejaVuSans-30" transform="translate(356.201172 0)"/>
      <use xlink:href="#DejaVuSans-31" transform="translate(419.824219 0)"/>
      <use xlink:href="#DejaVuSans-35" transform="translate(483.447266 0)"/>
      <use xlink:href="#DejaVuSans-39" transform="translate(547.070312 0)"/>
      <use xlink:href="#DejaVuSans-32" transform="translate(610.693359 0)"/>
     </g>
    </g>
   </g>
   <g id="text_3">
    <g clip-path="url(#pc536e8234d)">
     <!-- sub_1001FA4 -->
     <g transform="translate(422.102042 162.236066) scale(0.1 -0.1)">
      <defs>
       <path id="DejaVuSans-46" d="M 628 4666 
L 3309 4666 
L 3309 4134 
L 1259 4134 
L 1259 2759 
L 3109 2759 
L 3109 2228 
L 1259 2228 
L 1259 0 
L 628 0 
L 628 4666 
z
" transform="scale(0.015625)"/>
       <path id="DejaVuSans-41" d="M 2188 4044 
L 1331 1722 
L 3047 1722 
L 2188 4044 
z
M 1831 4666 
L 2547 4666 
L 4325 0 
L 3669 0 
L 3244 1197 
L 1141 1197 
L 716 0 
L 50 0 
L 1831 4666 
z
" transform="scale(0.015625)"/>
      </defs>
      <use xlink:href="#DejaVuSans-73"/>
      <use xlink:href="#DejaVuSans-75" transform="translate(52.099609 0)"/>
      <use xlink:href="#DejaVuSans-62" transform="translate(115.478516 0)"/>
      <use xlink:href="#DejaVuSans-5f" transform="translate(178.955078 0)"/>
      <use xlink:href="#DejaVuSans-31" transform="translate(228.955078 0)"/>
      <use xlink:href="#DejaVuSans-30" transform="translate(292.578125 0)"/>
      <use xlink:href="#DejaVuSans-30" transform="translate(356.201172 0)"/>
      <use xlink:href="#DejaVuSans-31" transform="translate(419.824219 0)"/>
      <use xlink:href="#DejaVuSans-46" transform="translate(483.447266 0)"/>
      <use xlink:href="#DejaVuSans-41" transform="translate(531.841797 0)"/>
      <use xlink:href="#DejaVuSans-34" transform="translate(600.25 0)"/>
     </g>
    </g>
   </g>
   <g id="text_4">
    <g clip-path="url(#pc536e8234d)">
     <!-- sub_10014EF -->
     <g transform="translate(50.593094 336.526527) scale(0.1 -0.1)">
      <defs>
       <path id="DejaVuSans-45" d="M 628 4666 
L 3578 4666 
L 3578 4134 
L 1259 4134 
L 1259 2753 
L 3481 2753 
L 3481 2222 
L 1259 2222 
L 1259 531 
L 3634 531 
L 3634 0 
L 628 0 
L 628 4666 
z
" transform="scale(0.015625)"/>
      </defs>
      <use xlink:href="#DejaVuSans-73"/>
      <use xlink:href="#DejaVuSans-75" transform="translate(52.099609 0)"/>
      <use xlink:href="#DejaVuSans-62" transform="translate(115.478516 0)"/>
      <use xlink:href="#DejaVuSans-5f" transform="translate(178.955078 0)"/>
      <use xlink:href="#DejaVuSans-31" transform="translate(228.955078 0)"/>
      <use xlink:href="#DejaVuSans-30" transform="translate(292.578125 0)"/>
      <use xlink:href="#DejaVuSans-30" transform="translate(356.201172 0)"/>
      <use xlink:href="#DejaVuSans-31" transform="translate(419.824219 0)"/>
      <use xlink:href="#DejaVuSans-34" transform="translate(483.447266 0)"/>
      <use xlink:href="#DejaVuSans-45" transform="translate(547.070312 0)"/>
      <use xlink:href="#DejaVuSans-46" transform="translate(610.253906 0)"/>
     </g>
    </g>
   </g>
   <g id="text_5">
    <g clip-path="url(#pc536e8234d)">
     <!-- start -->
     <g transform="translate(323.21065 46.494912) scale(0.1 -0.1)">
      <defs>
       <path id="DejaVuSans-74" d="M 1172 4494 
L 1172 3500 
L 2356 3500 
L 2356 3053 
L 1172 3053 
L 1172 1153 
Q 1172 725 1289 603 
Q 1406 481 1766 481 
L 2356 481 
L 2356 0 
L 1766 0 
Q 1100 0 847 248 
Q 594 497 594 1153 
L 594 3053 
L 172 3053 
L 172 3500 
L 594 3500 
L 594 4494 
L 1172 4494 
z
" transform="scale(0.015625)"/>
       <path id="DejaVuSans-61" d="M 2194 1759 
Q 1497 1759 1228 1600 
Q 959 1441 959 1056 
Q 959 750 1161 570 
Q 1363 391 1709 391 
Q 2188 391 2477 730 
Q 2766 1069 2766 1631 
L 2766 1759 
L 2194 1759 
z
M 3341 1997 
L 3341 0 
L 2766 0 
L 2766 531 
Q 2569 213 2275 61 
Q 1981 -91 1556 -91 
Q 1019 -91 701 211 
Q 384 513 384 1019 
Q 384 1609 779 1909 
Q 1175 2209 1959 2209 
L 2766 2209 
L 2766 2266 
Q 2766 2663 2505 2880 
Q 2244 3097 1772 3097 
Q 1472 3097 1187 3025 
Q 903 2953 641 2809 
L 641 3341 
Q 956 3463 1253 3523 
Q 1550 3584 1831 3584 
Q 2591 3584 2966 3190 
Q 3341 2797 3341 1997 
z
" transform="scale(0.015625)"/>
       <path id="DejaVuSans-72" d="M 2631 2963 
Q 2534 3019 2420 3045 
Q 2306 3072 2169 3072 
Q 1681 3072 1420 2755 
Q 1159 2438 1159 1844 
L 1159 0 
L 581 0 
L 581 3500 
L 1159 3500 
L 1159 2956 
Q 1341 3275 1631 3429 
Q 1922 3584 2338 3584 
Q 2397 3584 2469 3576 
Q 2541 3569 2628 3553 
L 2631 2963 
z
" transform="scale(0.015625)"/>
      </defs>
      <use xlink:href="#DejaVuSans-73"/>
      <use xlink:href="#DejaVuSans-74" transform="translate(52.099609 0)"/>
      <use xlink:href="#DejaVuSans-61" transform="translate(91.308594 0)"/>
      <use xlink:href="#DejaVuSans-72" transform="translate(152.587891 0)"/>
      <use xlink:href="#DejaVuSans-74" transform="translate(193.701172 0)"/>
     </g>
    </g>
   </g>
   <g id="text_6">
    <g clip-path="url(#pc536e8234d)">
     <!-- sub_1001765 -->
     <g transform="translate(416.683908 462.238344) scale(0.1 -0.1)">
      <defs>
       <path id="DejaVuSans-37" d="M 525 4666 
L 3525 4666 
L 3525 4397 
L 1831 0 
L 1172 0 
L 2766 4134 
L 525 4134 
L 525 4666 
z
" transform="scale(0.015625)"/>
       <path id="DejaVuSans-36" d="M 2113 2584 
Q 1688 2584 1439 2293 
Q 1191 2003 1191 1497 
Q 1191 994 1439 701 
Q 1688 409 2113 409 
Q 2538 409 2786 701 
Q 3034 994 3034 1497 
Q 3034 2003 2786 2293 
Q 2538 2584 2113 2584 
z
M 3366 4563 
L 3366 3988 
Q 3128 4100 2886 4159 
Q 2644 4219 2406 4219 
Q 1781 4219 1451 3797 
Q 1122 3375 1075 2522 
Q 1259 2794 1537 2939 
Q 1816 3084 2150 3084 
Q 2853 3084 3261 2657 
Q 3669 2231 3669 1497 
Q 3669 778 3244 343 
Q 2819 -91 2113 -91 
Q 1303 -91 875 529 
Q 447 1150 447 2328 
Q 447 3434 972 4092 
Q 1497 4750 2381 4750 
Q 2619 4750 2861 4703 
Q 3103 4656 3366 4563 
z
" transform="scale(0.015625)"/>
      </defs>
      <use xlink:href="#DejaVuSans-73"/>
      <use xlink:href="#DejaVuSans-75" transform="translate(52.099609 0)"/>
      <use xlink:href="#DejaVuSans-62" transform="translate(115.478516 0)"/>
      <use xlink:href="#DejaVuSans-5f" transform="translate(178.955078 0)"/>
      <use xlink:href="#DejaVuSans-31" transform="translate(228.955078 0)"/>
      <use xlink:href="#DejaVuSans-30" transform="translate(292.578125 0)"/>
      <use xlink:href="#DejaVuSans-30" transform="translate(356.201172 0)"/>
      <use xlink:href="#DejaVuSans-31" transform="translate(419.824219 0)"/>
      <use xlink:href="#DejaVuSans-37" transform="translate(483.447266 0)"/>
      <use xlink:href="#DejaVuSans-36" transform="translate(547.070312 0)"/>
      <use xlink:href="#DejaVuSans-35" transform="translate(610.693359 0)"/>
     </g>
    </g>
   </g>
   <g id="text_7">
    <g clip-path="url(#pc536e8234d)">
     <!-- @__security_check_cookie@4 -->
     <g transform="translate(544.951036 330.206191) scale(0.1 -0.1)">
      <defs>
       <path id="DejaVuSans-40" d="M 2381 1678 
Q 2381 1231 2603 976 
Q 2825 722 3213 722 
Q 3597 722 3817 978 
Q 4038 1234 4038 1678 
Q 4038 2116 3813 2373 
Q 3588 2631 3206 2631 
Q 2828 2631 2604 2375 
Q 2381 2119 2381 1678 
z
M 4084 744 
Q 3897 503 3655 389 
Q 3413 275 3091 275 
Q 2553 275 2217 664 
Q 1881 1053 1881 1678 
Q 1881 2303 2218 2693 
Q 2556 3084 3091 3084 
Q 3413 3084 3656 2967 
Q 3900 2850 4084 2613 
L 4084 3022 
L 4531 3022 
L 4531 722 
Q 4988 791 5245 1139 
Q 5503 1488 5503 2041 
Q 5503 2375 5404 2669 
Q 5306 2963 5106 3213 
Q 4781 3622 4314 3839 
Q 3847 4056 3297 4056 
Q 2913 4056 2559 3954 
Q 2206 3853 1906 3653 
Q 1416 3334 1139 2817 
Q 863 2300 863 1697 
Q 863 1200 1042 765 
Q 1222 331 1563 0 
Q 1891 -325 2322 -495 
Q 2753 -666 3244 -666 
Q 3647 -666 4036 -530 
Q 4425 -394 4750 -141 
L 5031 -488 
Q 4641 -791 4180 -952 
Q 3719 -1113 3244 -1113 
Q 2666 -1113 2153 -908 
Q 1641 -703 1241 -313 
Q 841 78 631 592 
Q 422 1106 422 1697 
Q 422 2266 634 2781 
Q 847 3297 1241 3688 
Q 1644 4084 2172 4295 
Q 2700 4506 3291 4506 
Q 3953 4506 4520 4234 
Q 5088 3963 5472 3463 
Q 5706 3156 5829 2797 
Q 5953 2438 5953 2053 
Q 5953 1231 5456 756 
Q 4959 281 4084 263 
L 4084 744 
z
" transform="scale(0.015625)"/>
       <path id="DejaVuSans-65" d="M 3597 1894 
L 3597 1613 
L 953 1613 
Q 991 1019 1311 708 
Q 1631 397 2203 397 
Q 2534 397 2845 478 
Q 3156 559 3463 722 
L 3463 178 
Q 3153 47 2828 -22 
Q 2503 -91 2169 -91 
Q 1331 -91 842 396 
Q 353 884 353 1716 
Q 353 2575 817 3079 
Q 1281 3584 2069 3584 
Q 2775 3584 3186 3129 
Q 3597 2675 3597 1894 
z
M 3022 2063 
Q 3016 2534 2758 2815 
Q 2500 3097 2075 3097 
Q 1594 3097 1305 2825 
Q 1016 2553 972 2059 
L 3022 2063 
z
" transform="scale(0.015625)"/>
       <path id="DejaVuSans-63" d="M 3122 3366 
L 3122 2828 
Q 2878 2963 2633 3030 
Q 2388 3097 2138 3097 
Q 1578 3097 1268 2742 
Q 959 2388 959 1747 
Q 959 1106 1268 751 
Q 1578 397 2138 397 
Q 2388 397 2633 464 
Q 2878 531 3122 666 
L 3122 134 
Q 2881 22 2623 -34 
Q 2366 -91 2075 -91 
Q 1284 -91 818 406 
Q 353 903 353 1747 
Q 353 2603 823 3093 
Q 1294 3584 2113 3584 
Q 2378 3584 2631 3529 
Q 2884 3475 3122 3366 
z
" transform="scale(0.015625)"/>
       <path id="DejaVuSans-69" d="M 603 3500 
L 1178 3500 
L 1178 0 
L 603 0 
L 603 3500 
z
M 603 4863 
L 1178 4863 
L 1178 4134 
L 603 4134 
L 603 4863 
z
" transform="scale(0.015625)"/>
       <path id="DejaVuSans-79" d="M 2059 -325 
Q 1816 -950 1584 -1140 
Q 1353 -1331 966 -1331 
L 506 -1331 
L 506 -850 
L 844 -850 
Q 1081 -850 1212 -737 
Q 1344 -625 1503 -206 
L 1606 56 
L 191 3500 
L 800 3500 
L 1894 763 
L 2988 3500 
L 3597 3500 
L 2059 -325 
z
" transform="scale(0.015625)"/>
       <path id="DejaVuSans-68" d="M 3513 2113 
L 3513 0 
L 2938 0 
L 2938 2094 
Q 2938 2591 2744 2837 
Q 2550 3084 2163 3084 
Q 1697 3084 1428 2787 
Q 1159 2491 1159 1978 
L 1159 0 
L 581 0 
L 581 4863 
L 1159 4863 
L 1159 2956 
Q 1366 3272 1645 3428 
Q 1925 3584 2291 3584 
Q 2894 3584 3203 3211 
Q 3513 2838 3513 2113 
z
" transform="scale(0.015625)"/>
       <path id="DejaVuSans-6b" d="M 581 4863 
L 1159 4863 
L 1159 1991 
L 2875 3500 
L 3609 3500 
L 1753 1863 
L 3688 0 
L 2938 0 
L 1159 1709 
L 1159 0 
L 581 0 
L 581 4863 
z
" transform="scale(0.015625)"/>
       <path id="DejaVuSans-6f" d="M 1959 3097 
Q 1497 3097 1228 2736 
Q 959 2375 959 1747 
Q 959 1119 1226 758 
Q 1494 397 1959 397 
Q 2419 397 2687 759 
Q 2956 1122 2956 1747 
Q 2956 2369 2687 2733 
Q 2419 3097 1959 3097 
z
M 1959 3584 
Q 2709 3584 3137 3096 
Q 3566 2609 3566 1747 
Q 3566 888 3137 398 
Q 2709 -91 1959 -91 
Q 1206 -91 779 398 
Q 353 888 353 1747 
Q 353 2609 779 3096 
Q 1206 3584 1959 3584 
z
" transform="scale(0.015625)"/>
      </defs>
      <use xlink:href="#DejaVuSans-40"/>
      <use xlink:href="#DejaVuSans-5f" transform="translate(100 0)"/>
      <use xlink:href="#DejaVuSans-5f" transform="translate(150 0)"/>
      <use xlink:href="#DejaVuSans-73" transform="translate(200 0)"/>
      <use xlink:href="#DejaVuSans-65" transform="translate(252.099609 0)"/>
      <use xlink:href="#DejaVuSans-63" transform="translate(313.623047 0)"/>
      <use xlink:href="#DejaVuSans-75" transform="translate(368.603516 0)"/>
      <use xlink:href="#DejaVuSans-72" transform="translate(431.982422 0)"/>
      <use xlink:href="#DejaVuSans-69" transform="translate(473.095703 0)"/>
      <use xlink:href="#DejaVuSans-74" transform="translate(500.878906 0)"/>
      <use xlink:href="#DejaVuSans-79" transform="translate(540.087891 0)"/>
      <use xlink:href="#DejaVuSans-5f" transform="translate(599.267578 0)"/>
      <use xlink:href="#DejaVuSans-63" transform="translate(649.267578 0)"/>
      <use xlink:href="#DejaVuSans-68" transform="translate(704.248047 0)"/>
      <use xlink:href="#DejaVuSans-65" transform="translate(767.626953 0)"/>
      <use xlink:href="#DejaVuSans-63" transform="translate(829.150391 0)"/>
      <use xlink:href="#DejaVuSans-6b" transform="translate(884.130859 0)"/>
      <use xlink:href="#DejaVuSans-5f" transform="translate(942.041016 0)"/>
      <use xlink:href="#DejaVuSans-63" transform="translate(992.041016 0)"/>
      <use xlink:href="#DejaVuSans-6f" transform="translate(1047.021484 0)"/>
      <use xlink:href="#DejaVuSans-6f" transform="translate(1108.203125 0)"/>
      <use xlink:href="#DejaVuSans-6b" transform="translate(1169.384766 0)"/>
      <use xlink:href="#DejaVuSans-69" transform="translate(1227.294922 0)"/>
      <use xlink:href="#DejaVuSans-65" transform="translate(1255.078125 0)"/>
      <use xlink:href="#DejaVuSans-40" transform="translate(1316.601562 0)"/>
      <use xlink:href="#DejaVuSans-34" transform="translate(1416.601562 0)"/>
     </g>
    </g>
   </g>
   <g id="text_8">
    <g clip-path="url(#pc536e8234d)">
     <!-- _XcptFilter -->
     <g transform="translate(478.719217 406.514775) scale(0.1 -0.1)">
      <defs>
       <path id="DejaVuSans-58" d="M 403 4666 
L 1081 4666 
L 2241 2931 
L 3406 4666 
L 4084 4666 
L 2584 2425 
L 4184 0 
L 3506 0 
L 2194 1984 
L 872 0 
L 191 0 
L 1856 2491 
L 403 4666 
z
" transform="scale(0.015625)"/>
       <path id="DejaVuSans-70" d="M 1159 525 
L 1159 -1331 
L 581 -1331 
L 581 3500 
L 1159 3500 
L 1159 2969 
Q 1341 3281 1617 3432 
Q 1894 3584 2278 3584 
Q 2916 3584 3314 3078 
Q 3713 2572 3713 1747 
Q 3713 922 3314 415 
Q 2916 -91 2278 -91 
Q 1894 -91 1617 61 
Q 1341 213 1159 525 
z
M 3116 1747 
Q 3116 2381 2855 2742 
Q 2594 3103 2138 3103 
Q 1681 3103 1420 2742 
Q 1159 2381 1159 1747 
Q 1159 1113 1420 752 
Q 1681 391 2138 391 
Q 2594 391 2855 752 
Q 3116 1113 3116 1747 
z
" transform="scale(0.015625)"/>
       <path id="DejaVuSans-6c" d="M 603 4863 
L 1178 4863 
L 1178 0 
L 603 0 
L 603 4863 
z
" transform="scale(0.015625)"/>
      </defs>
      <use xlink:href="#DejaVuSans-5f"/>
      <use xlink:href="#DejaVuSans-58" transform="translate(50 0)"/>
      <use xlink:href="#DejaVuSans-63" transform="translate(118.505859 0)"/>
      <use xlink:href="#DejaVuSans-70" transform="translate(173.486328 0)"/>
      <use xlink:href="#DejaVuSans-74" transform="translate(236.962891 0)"/>
      <use xlink:href="#DejaVuSans-46" transform="translate(276.171875 0)"/>
      <use xlink:href="#DejaVuSans-69" transform="translate(326.441406 0)"/>
      <use xlink:href="#DejaVuSans-6c" transform="translate(354.224609 0)"/>
      <use xlink:href="#DejaVuSans-74" transform="translate(382.007812 0)"/>
      <use xlink:href="#DejaVuSans-65" transform="translate(421.216797 0)"/>
      <use xlink:href="#DejaVuSans-72" transform="translate(482.740234 0)"/>
     </g>
    </g>
   </g>
   <g id="text_9">
    <g clip-path="url(#pc536e8234d)">
     <!-- _initterm -->
     <g transform="translate(129.6745 381.458028) scale(0.1 -0.1)">
      <defs>
       <path id="DejaVuSans-6e" d="M 3513 2113 
L 3513 0 
L 2938 0 
L 2938 2094 
Q 2938 2591 2744 2837 
Q 2550 3084 2163 3084 
Q 1697 3084 1428 2787 
Q 1159 2491 1159 1978 
L 1159 0 
L 581 0 
L 581 3500 
L 1159 3500 
L 1159 2956 
Q 1366 3272 1645 3428 
Q 1925 3584 2291 3584 
Q 2894 3584 3203 3211 
Q 3513 2838 3513 2113 
z
" transform="scale(0.015625)"/>
       <path id="DejaVuSans-6d" d="M 3328 2828 
Q 3544 3216 3844 3400 
Q 4144 3584 4550 3584 
Q 5097 3584 5394 3201 
Q 5691 2819 5691 2113 
L 5691 0 
L 5113 0 
L 5113 2094 
Q 5113 2597 4934 2840 
Q 4756 3084 4391 3084 
Q 3944 3084 3684 2787 
Q 3425 2491 3425 1978 
L 3425 0 
L 2847 0 
L 2847 2094 
Q 2847 2600 2669 2842 
Q 2491 3084 2119 3084 
Q 1678 3084 1418 2786 
Q 1159 2488 1159 1978 
L 1159 0 
L 581 0 
L 581 3500 
L 1159 3500 
L 1159 2956 
Q 1356 3278 1631 3431 
Q 1906 3584 2284 3584 
Q 2666 3584 2933 3390 
Q 3200 3197 3328 2828 
z
" transform="scale(0.015625)"/>
      </defs>
      <use xlink:href="#DejaVuSans-5f"/>
      <use xlink:href="#DejaVuSans-69" transform="translate(50 0)"/>
      <use xlink:href="#DejaVuSans-6e" transform="translate(77.783203 0)"/>
      <use xlink:href="#DejaVuSans-69" transform="translate(141.162109 0)"/>
      <use xlink:href="#DejaVuSans-74" transform="translate(168.945312 0)"/>
      <use xlink:href="#DejaVuSans-74" transform="translate(208.154297 0)"/>
      <use xlink:href="#DejaVuSans-65" transform="translate(247.363281 0)"/>
      <use xlink:href="#DejaVuSans-72" transform="translate(308.886719 0)"/>
      <use xlink:href="#DejaVuSans-6d" transform="translate(348.25 0)"/>
     </g>
    </g>
   </g>
   <g id="text_10">
    <g clip-path="url(#pc536e8234d)">
     <!-- sub_1001A1A -->
     <g transform="translate(276.008279 195.106624) scale(0.1 -0.1)">
      <use xlink:href="#DejaVuSans-73"/>
      <use xlink:href="#DejaVuSans-75" transform="translate(52.099609 0)"/>
      <use xlink:href="#DejaVuSans-62" transform="translate(115.478516 0)"/>
      <use xlink:href="#DejaVuSans-5f" transform="translate(178.955078 0)"/>
      <use xlink:href="#DejaVuSans-31" transform="translate(228.955078 0)"/>
      <use xlink:href="#DejaVuSans-30" transform="translate(292.578125 0)"/>
      <use xlink:href="#DejaVuSans-30" transform="translate(356.201172 0)"/>
      <use xlink:href="#DejaVuSans-31" transform="translate(419.824219 0)"/>
      <use xlink:href="#DejaVuSans-41" transform="translate(483.447266 0)"/>
      <use xlink:href="#DejaVuSans-31" transform="translate(551.855469 0)"/>
      <use xlink:href="#DejaVuSans-41" transform="translate(615.478516 0)"/>
     </g>
    </g>
   </g>
   <g id="text_11">
    <g clip-path="url(#pc536e8234d)">
     <!-- UserMathErrorFunction -->
     <g transform="translate(105.192762 186.334367) scale(0.1 -0.1)">
      <defs>
       <path id="DejaVuSans-55" d="M 556 4666 
L 1191 4666 
L 1191 1831 
Q 1191 1081 1462 751 
Q 1734 422 2344 422 
Q 2950 422 3222 751 
Q 3494 1081 3494 1831 
L 3494 4666 
L 4128 4666 
L 4128 1753 
Q 4128 841 3676 375 
Q 3225 -91 2344 -91 
Q 1459 -91 1007 375 
Q 556 841 556 1753 
L 556 4666 
z
" transform="scale(0.015625)"/>
       <path id="DejaVuSans-4d" d="M 628 4666 
L 1569 4666 
L 2759 1491 
L 3956 4666 
L 4897 4666 
L 4897 0 
L 4281 0 
L 4281 4097 
L 3078 897 
L 2444 897 
L 1241 4097 
L 1241 0 
L 628 0 
L 628 4666 
z
" transform="scale(0.015625)"/>
      </defs>
      <use xlink:href="#DejaVuSans-55"/>
      <use xlink:href="#DejaVuSans-73" transform="translate(73.193359 0)"/>
      <use xlink:href="#DejaVuSans-65" transform="translate(125.292969 0)"/>
      <use xlink:href="#DejaVuSans-72" transform="translate(186.816406 0)"/>
      <use xlink:href="#DejaVuSans-4d" transform="translate(227.929688 0)"/>
      <use xlink:href="#DejaVuSans-61" transform="translate(314.208984 0)"/>
      <use xlink:href="#DejaVuSans-74" transform="translate(375.488281 0)"/>
      <use xlink:href="#DejaVuSans-68" transform="translate(414.697266 0)"/>
      <use xlink:href="#DejaVuSans-45" transform="translate(478.076172 0)"/>
      <use xlink:href="#DejaVuSans-72" transform="translate(541.259766 0)"/>
      <use xlink:href="#DejaVuSans-72" transform="translate(580.623047 0)"/>
      <use xlink:href="#DejaVuSans-6f" transform="translate(619.486328 0)"/>
      <use xlink:href="#DejaVuSans-72" transform="translate(680.667969 0)"/>
      <use xlink:href="#DejaVuSans-46" transform="translate(721.78125 0)"/>
      <use xlink:href="#DejaVuSans-75" transform="translate(773.800781 0)"/>
      <use xlink:href="#DejaVuSans-6e" transform="translate(837.179688 0)"/>
      <use xlink:href="#DejaVuSans-63" transform="translate(900.558594 0)"/>
      <use xlink:href="#DejaVuSans-74" transform="translate(955.539062 0)"/>
      <use xlink:href="#DejaVuSans-69" transform="translate(994.748047 0)"/>
      <use xlink:href="#DejaVuSans-6f" transform="translate(1022.53125 0)"/>
      <use xlink:href="#DejaVuSans-6e" transform="translate(1083.712891 0)"/>
     </g>
    </g>
   </g>
   <g id="text_12">
    <g clip-path="url(#pc536e8234d)">
     <!-- __SEH_prolog -->
     <g transform="translate(467.510411 246.306976) scale(0.1 -0.1)">
      <defs>
       <path id="DejaVuSans-53" d="M 3425 4513 
L 3425 3897 
Q 3066 4069 2747 4153 
Q 2428 4238 2131 4238 
Q 1616 4238 1336 4038 
Q 1056 3838 1056 3469 
Q 1056 3159 1242 3001 
Q 1428 2844 1947 2747 
L 2328 2669 
Q 3034 2534 3370 2195 
Q 3706 1856 3706 1288 
Q 3706 609 3251 259 
Q 2797 -91 1919 -91 
Q 1588 -91 1214 -16 
Q 841 59 441 206 
L 441 856 
Q 825 641 1194 531 
Q 1563 422 1919 422 
Q 2459 422 2753 634 
Q 3047 847 3047 1241 
Q 3047 1584 2836 1778 
Q 2625 1972 2144 2069 
L 1759 2144 
Q 1053 2284 737 2584 
Q 422 2884 422 3419 
Q 422 4038 858 4394 
Q 1294 4750 2059 4750 
Q 2388 4750 2728 4690 
Q 3069 4631 3425 4513 
z
" transform="scale(0.015625)"/>
       <path id="DejaVuSans-48" d="M 628 4666 
L 1259 4666 
L 1259 2753 
L 3553 2753 
L 3553 4666 
L 4184 4666 
L 4184 0 
L 3553 0 
L 3553 2222 
L 1259 2222 
L 1259 0 
L 628 0 
L 628 4666 
z
" transform="scale(0.015625)"/>
       <path id="DejaVuSans-67" d="M 2906 1791 
Q 2906 2416 2648 2759 
Q 2391 3103 1925 3103 
Q 1463 3103 1205 2759 
Q 947 2416 947 1791 
Q 947 1169 1205 825 
Q 1463 481 1925 481 
Q 2391 481 2648 825 
Q 2906 1169 2906 1791 
z
M 3481 434 
Q 3481 -459 3084 -895 
Q 2688 -1331 1869 -1331 
Q 1566 -1331 1297 -1286 
Q 1028 -1241 775 -1147 
L 775 -588 
Q 1028 -725 1275 -790 
Q 1522 -856 1778 -856 
Q 2344 -856 2625 -561 
Q 2906 -266 2906 331 
L 2906 616 
Q 2728 306 2450 153 
Q 2172 0 1784 0 
Q 1141 0 747 490 
Q 353 981 353 1791 
Q 353 2603 747 3093 
Q 1141 3584 1784 3584 
Q 2172 3584 2450 3431 
Q 2728 3278 2906 2969 
L 2906 3500 
L 3481 3500 
L 3481 434 
z
" transform="scale(0.015625)"/>
      </defs>
      <use xlink:href="#DejaVuSans-5f"/>
      <use xlink:href="#DejaVuSans-5f" transform="translate(50 0)"/>
      <use xlink:href="#DejaVuSans-53" transform="translate(100 0)"/>
      <use xlink:href="#DejaVuSans-45" transform="translate(163.476562 0)"/>
      <use xlink:href="#DejaVuSans-48" transform="translate(226.660156 0)"/>
      <use xlink:href="#DejaVuSans-5f" transform="translate(301.855469 0)"/>
      <use xlink:href="#DejaVuSans-70" transform="translate(351.855469 0)"/>
      <use xlink:href="#DejaVuSans-72" transform="translate(415.332031 0)"/>
      <use xlink:href="#DejaVuSans-6f" transform="translate(454.195312 0)"/>
      <use xlink:href="#DejaVuSans-6c" transform="translate(515.376953 0)"/>
      <use xlink:href="#DejaVuSans-6f" transform="translate(543.160156 0)"/>
      <use xlink:href="#DejaVuSans-67" transform="translate(604.341797 0)"/>
     </g>
    </g>
   </g>
   <g id="text_13">
    <g clip-path="url(#pc536e8234d)">
     <!-- __SEH_epilog -->
     <g transform="translate(570.82292 143.979869) scale(0.1 -0.1)">
      <use xlink:href="#DejaVuSans-5f"/>
      <use xlink:href="#DejaVuSans-5f" transform="translate(50 0)"/>
      <use xlink:href="#DejaVuSans-53" transform="translate(100 0)"/>
      <use xlink:href="#DejaVuSans-45" transform="translate(163.476562 0)"/>
      <use xlink:href="#DejaVuSans-48" transform="translate(226.660156 0)"/>
      <use xlink:href="#DejaVuSans-5f" transform="translate(301.855469 0)"/>
      <use xlink:href="#DejaVuSans-65" transform="translate(351.855469 0)"/>
      <use xlink:href="#DejaVuSans-70" transform="translate(413.378906 0)"/>
      <use xlink:href="#DejaVuSans-69" transform="translate(476.855469 0)"/>
      <use xlink:href="#DejaVuSans-6c" transform="translate(504.638672 0)"/>
      <use xlink:href="#DejaVuSans-6f" transform="translate(532.421875 0)"/>
      <use xlink:href="#DejaVuSans-67" transform="translate(593.603516 0)"/>
     </g>
    </g>
   </g>
   <g id="text_14">
    <g clip-path="url(#pc536e8234d)">
     <!-- _except_handler3 -->
     <g transform="translate(613.421442 271.929158) scale(0.1 -0.1)">
      <defs>
       <path id="DejaVuSans-78" d="M 3513 3500 
L 2247 1797 
L 3578 0 
L 2900 0 
L 1881 1375 
L 863 0 
L 184 0 
L 1544 1831 
L 300 3500 
L 978 3500 
L 1906 2253 
L 2834 3500 
L 3513 3500 
z
" transform="scale(0.015625)"/>
       <path id="DejaVuSans-64" d="M 2906 2969 
L 2906 4863 
L 3481 4863 
L 3481 0 
L 2906 0 
L 2906 525 
Q 2725 213 2448 61 
Q 2172 -91 1784 -91 
Q 1150 -91 751 415 
Q 353 922 353 1747 
Q 353 2572 751 3078 
Q 1150 3584 1784 3584 
Q 2172 3584 2448 3432 
Q 2725 3281 2906 2969 
z
M 947 1747 
Q 947 1113 1208 752 
Q 1469 391 1925 391 
Q 2381 391 2643 752 
Q 2906 1113 2906 1747 
Q 2906 2381 2643 2742 
Q 2381 3103 1925 3103 
Q 1469 3103 1208 2742 
Q 947 2381 947 1747 
z
" transform="scale(0.015625)"/>
       <path id="DejaVuSans-33" d="M 2597 2516 
Q 3050 2419 3304 2112 
Q 3559 1806 3559 1356 
Q 3559 666 3084 287 
Q 2609 -91 1734 -91 
Q 1441 -91 1130 -33 
Q 819 25 488 141 
L 488 750 
Q 750 597 1062 519 
Q 1375 441 1716 441 
Q 2309 441 2620 675 
Q 2931 909 2931 1356 
Q 2931 1769 2642 2001 
Q 2353 2234 1838 2234 
L 1294 2234 
L 1294 2753 
L 1863 2753 
Q 2328 2753 2575 2939 
Q 2822 3125 2822 3475 
Q 2822 3834 2567 4026 
Q 2313 4219 1838 4219 
Q 1578 4219 1281 4162 
Q 984 4106 628 3988 
L 628 4550 
Q 988 4650 1302 4700 
Q 1616 4750 1894 4750 
Q 2613 4750 3031 4423 
Q 3450 4097 3450 3541 
Q 3450 3153 3228 2886 
Q 3006 2619 2597 2516 
z
" transform="scale(0.015625)"/>
      </defs>
      <use xlink:href="#DejaVuSans-5f"/>
      <use xlink:href="#DejaVuSans-65" transform="translate(50 0)"/>
      <use xlink:href="#DejaVuSans-78" transform="translate(109.773438 0)"/>
      <use xlink:href="#DejaVuSans-63" transform="translate(167.203125 0)"/>
      <use xlink:href="#DejaVuSans-65" transform="translate(222.183594 0)"/>
      <use xlink:href="#DejaVuSans-70" transform="translate(283.707031 0)"/>
      <use xlink:href="#DejaVuSans-74" transform="translate(347.183594 0)"/>
      <use xlink:href="#DejaVuSans-5f" transform="translate(386.392578 0)"/>
      <use xlink:href="#DejaVuSans-68" transform="translate(436.392578 0)"/>
      <use xlink:href="#DejaVuSans-61" transform="translate(499.771484 0)"/>
      <use xlink:href="#DejaVuSans-6e" transform="translate(561.050781 0)"/>
      <use xlink:href="#DejaVuSans-64" transform="translate(624.429688 0)"/>
      <use xlink:href="#DejaVuSans-6c" transform="translate(687.90625 0)"/>
      <use xlink:href="#DejaVuSans-65" transform="translate(715.689453 0)"/>
      <use xlink:href="#DejaVuSans-72" transform="translate(777.212891 0)"/>
      <use xlink:href="#DejaVuSans-33" transform="translate(818.326172 0)"/>
     </g>
    </g>
   </g>
   <g id="text_15">
    <g clip-path="url(#pc536e8234d)">
     <!-- _controlfp -->
     <g transform="translate(80.621548 144.015311) scale(0.1 -0.1)">
      <defs>
       <path id="DejaVuSans-66" d="M 2375 4863 
L 2375 4384 
L 1825 4384 
Q 1516 4384 1395 4259 
Q 1275 4134 1275 3809 
L 1275 3500 
L 2222 3500 
L 2222 3053 
L 1275 3053 
L 1275 0 
L 697 0 
L 697 3053 
L 147 3053 
L 147 3500 
L 697 3500 
L 697 3744 
Q 697 4328 969 4595 
Q 1241 4863 1831 4863 
L 2375 4863 
z
" transform="scale(0.015625)"/>
      </defs>
      <use xlink:href="#DejaVuSans-5f"/>
      <use xlink:href="#DejaVuSans-63" transform="translate(50 0)"/>
      <use xlink:href="#DejaVuSans-6f" transform="translate(104.980469 0)"/>
      <use xlink:href="#DejaVuSans-6e" transform="translate(166.162109 0)"/>
      <use xlink:href="#DejaVuSans-74" transform="translate(229.541016 0)"/>
      <use xlink:href="#DejaVuSans-72" transform="translate(268.75 0)"/>
      <use xlink:href="#DejaVuSans-6f" transform="translate(307.613281 0)"/>
      <use xlink:href="#DejaVuSans-6c" transform="translate(368.794922 0)"/>
      <use xlink:href="#DejaVuSans-66" transform="translate(396.578125 0)"/>
      <use xlink:href="#DejaVuSans-70" transform="translate(431.783203 0)"/>
     </g>
    </g>
   </g>
   <g id="text_16">
    <g clip-path="url(#pc536e8234d)">
     <!-- sub_1001A88 -->
     <g transform="translate(275.828052 295.379442) scale(0.1 -0.1)">
      <defs>
       <path id="DejaVuSans-38" d="M 2034 2216 
Q 1584 2216 1326 1975 
Q 1069 1734 1069 1313 
Q 1069 891 1326 650 
Q 1584 409 2034 409 
Q 2484 409 2743 651 
Q 3003 894 3003 1313 
Q 3003 1734 2745 1975 
Q 2488 2216 2034 2216 
z
M 1403 2484 
Q 997 2584 770 2862 
Q 544 3141 544 3541 
Q 544 4100 942 4425 
Q 1341 4750 2034 4750 
Q 2731 4750 3128 4425 
Q 3525 4100 3525 3541 
Q 3525 3141 3298 2862 
Q 3072 2584 2669 2484 
Q 3125 2378 3379 2068 
Q 3634 1759 3634 1313 
Q 3634 634 3220 271 
Q 2806 -91 2034 -91 
Q 1263 -91 848 271 
Q 434 634 434 1313 
Q 434 1759 690 2068 
Q 947 2378 1403 2484 
z
M 1172 3481 
Q 1172 3119 1398 2916 
Q 1625 2713 2034 2713 
Q 2441 2713 2670 2916 
Q 2900 3119 2900 3481 
Q 2900 3844 2670 4047 
Q 2441 4250 2034 4250 
Q 1625 4250 1398 4047 
Q 1172 3844 1172 3481 
z
" transform="scale(0.015625)"/>
      </defs>
      <use xlink:href="#DejaVuSans-73"/>
      <use xlink:href="#DejaVuSans-75" transform="translate(52.099609 0)"/>
      <use xlink:href="#DejaVuSans-62" transform="translate(115.478516 0)"/>
      <use xlink:href="#DejaVuSans-5f" transform="translate(178.955078 0)"/>
      <use xlink:href="#DejaVuSans-31" transform="translate(228.955078 0)"/>
      <use xlink:href="#DejaVuSans-30" transform="translate(292.578125 0)"/>
      <use xlink:href="#DejaVuSans-30" transform="translate(356.201172 0)"/>
      <use xlink:href="#DejaVuSans-31" transform="translate(419.824219 0)"/>
      <use xlink:href="#DejaVuSans-41" transform="translate(483.447266 0)"/>
      <use xlink:href="#DejaVuSans-38" transform="translate(551.855469 0)"/>
      <use xlink:href="#DejaVuSans-38" transform="translate(615.478516 0)"/>
     </g>
    </g>
   </g>
   <g id="text_17">
    <g clip-path="url(#pc536e8234d)">
     <!-- sub_1001D06 -->
     <g transform="translate(600.646836 210.968218) scale(0.1 -0.1)">
      <defs>
       <path id="DejaVuSans-44" d="M 1259 4147 
L 1259 519 
L 2022 519 
Q 2988 519 3436 956 
Q 3884 1394 3884 2338 
Q 3884 3275 3436 3711 
Q 2988 4147 2022 4147 
L 1259 4147 
z
M 628 4666 
L 1925 4666 
Q 3281 4666 3915 4102 
Q 4550 3538 4550 2338 
Q 4550 1131 3912 565 
Q 3275 0 1925 0 
L 628 0 
L 628 4666 
z
" transform="scale(0.015625)"/>
      </defs>
      <use xlink:href="#DejaVuSans-73"/>
      <use xlink:href="#DejaVuSans-75" transform="translate(52.099609 0)"/>
      <use xlink:href="#DejaVuSans-62" transform="translate(115.478516 0)"/>
      <use xlink:href="#DejaVuSans-5f" transform="translate(178.955078 0)"/>
      <use xlink:href="#DejaVuSans-31" transform="translate(228.955078 0)"/>
      <use xlink:href="#DejaVuSans-30" transform="translate(292.578125 0)"/>
      <use xlink:href="#DejaVuSans-30" transform="translate(356.201172 0)"/>
      <use xlink:href="#DejaVuSans-31" transform="translate(419.824219 0)"/>
      <use xlink:href="#DejaVuSans-44" transform="translate(483.447266 0)"/>
      <use xlink:href="#DejaVuSans-30" transform="translate(560.449219 0)"/>
      <use xlink:href="#DejaVuSans-36" transform="translate(624.072266 0)"/>
     </g>
    </g>
   </g>
   <g id="text_18">
    <g clip-path="url(#pc536e8234d)">
     <!-- sub_1001D1B -->
     <g transform="translate(261.103013 405.475694) scale(0.1 -0.1)">
      <use xlink:href="#DejaVuSans-73"/>
      <use xlink:href="#DejaVuSans-75" transform="translate(52.099609 0)"/>
      <use xlink:href="#DejaVuSans-62" transform="translate(115.478516 0)"/>
      <use xlink:href="#DejaVuSans-5f" transform="translate(178.955078 0)"/>
      <use xlink:href="#DejaVuSans-31" transform="translate(228.955078 0)"/>
      <use xlink:href="#DejaVuSans-30" transform="translate(292.578125 0)"/>
      <use xlink:href="#DejaVuSans-30" transform="translate(356.201172 0)"/>
      <use xlink:href="#DejaVuSans-31" transform="translate(419.824219 0)"/>
      <use xlink:href="#DejaVuSans-44" transform="translate(483.447266 0)"/>
      <use xlink:href="#DejaVuSans-31" transform="translate(560.449219 0)"/>
      <use xlink:href="#DejaVuSans-42" transform="translate(624.072266 0)"/>
     </g>
    </g>
   </g>
   <g id="text_19">
    <g clip-path="url(#pc536e8234d)">
     <!-- sub_1001DB9 -->
     <g transform="translate(554.877913 391.804008) scale(0.1 -0.1)">
      <use xlink:href="#DejaVuSans-73"/>
      <use xlink:href="#DejaVuSans-75" transform="translate(52.099609 0)"/>
      <use xlink:href="#DejaVuSans-62" transform="translate(115.478516 0)"/>
      <use xlink:href="#DejaVuSans-5f" transform="translate(178.955078 0)"/>
      <use xlink:href="#DejaVuSans-31" transform="translate(228.955078 0)"/>
      <use xlink:href="#DejaVuSans-30" transform="translate(292.578125 0)"/>
      <use xlink:href="#DejaVuSans-30" transform="translate(356.201172 0)"/>
      <use xlink:href="#DejaVuSans-31" transform="translate(419.824219 0)"/>
      <use xlink:href="#DejaVuSans-44" transform="translate(483.447266 0)"/>
      <use xlink:href="#DejaVuSans-42" transform="translate(560.449219 0)"/>
      <use xlink:href="#DejaVuSans-39" transform="translate(629.052734 0)"/>
     </g>
    </g>
   </g>
   <g id="text_20">
    <g clip-path="url(#pc536e8234d)">
     <!-- sub_10020BB -->
     <g transform="translate(28.264495 245.475986) scale(0.1 -0.1)">
      <use xlink:href="#DejaVuSans-73"/>
      <use xlink:href="#DejaVuSans-75" transform="translate(52.099609 0)"/>
      <use xlink:href="#DejaVuSans-62" transform="translate(115.478516 0)"/>
      <use xlink:href="#DejaVuSans-5f" transform="translate(178.955078 0)"/>
      <use xlink:href="#DejaVuSans-31" transform="translate(228.955078 0)"/>
      <use xlink:href="#DejaVuSans-30" transform="translate(292.578125 0)"/>
      <use xlink:href="#DejaVuSans-30" transform="translate(356.201172 0)"/>
      <use xlink:href="#DejaVuSans-32" transform="translate(419.824219 0)"/>
      <use xlink:href="#DejaVuSans-30" transform="translate(483.447266 0)"/>
      <use xlink:href="#DejaVuSans-42" transform="translate(547.070312 0)"/>
      <use xlink:href="#DejaVuSans-42" transform="translate(615.673828 0)"/>
     </g>
    </g>
   </g>
   <g id="text_21">
    <g clip-path="url(#pc536e8234d)">
     <!-- sub_1001DE3 -->
     <g transform="translate(500.074069 90.363049) scale(0.1 -0.1)">
      <use xlink:href="#DejaVuSans-73"/>
      <use xlink:href="#DejaVuSans-75" transform="translate(52.099609 0)"/>
      <use xlink:href="#DejaVuSans-62" transform="translate(115.478516 0)"/>
      <use xlink:href="#DejaVuSans-5f" transform="translate(178.955078 0)"/>
      <use xlink:href="#DejaVuSans-31" transform="translate(228.955078 0)"/>
      <use xlink:href="#DejaVuSans-30" transform="translate(292.578125 0)"/>
      <use xlink:href="#DejaVuSans-30" transform="translate(356.201172 0)"/>
      <use xlink:href="#DejaVuSans-31" transform="translate(419.824219 0)"/>
      <use xlink:href="#DejaVuSans-44" transform="translate(483.447266 0)"/>
      <use xlink:href="#DejaVuSans-45" transform="translate(560.449219 0)"/>
      <use xlink:href="#DejaVuSans-33" transform="translate(623.632812 0)"/>
     </g>
    </g>
   </g>
   <g id="text_22">
    <g clip-path="url(#pc536e8234d)">
     <!-- sub_1001E1C -->
     <g transform="translate(164.214778 89.268243) scale(0.1 -0.1)">
      <defs>
       <path id="DejaVuSans-43" d="M 4122 4306 
L 4122 3641 
Q 3803 3938 3442 4084 
Q 3081 4231 2675 4231 
Q 1875 4231 1450 3742 
Q 1025 3253 1025 2328 
Q 1025 1406 1450 917 
Q 1875 428 2675 428 
Q 3081 428 3442 575 
Q 3803 722 4122 1019 
L 4122 359 
Q 3791 134 3420 21 
Q 3050 -91 2638 -91 
Q 1578 -91 968 557 
Q 359 1206 359 2328 
Q 359 3453 968 4101 
Q 1578 4750 2638 4750 
Q 3056 4750 3426 4639 
Q 3797 4528 4122 4306 
z
" transform="scale(0.015625)"/>
      </defs>
      <use xlink:href="#DejaVuSans-73"/>
      <use xlink:href="#DejaVuSans-75" transform="translate(52.099609 0)"/>
      <use xlink:href="#DejaVuSans-62" transform="translate(115.478516 0)"/>
      <use xlink:href="#DejaVuSans-5f" transform="translate(178.955078 0)"/>
      <use xlink:href="#DejaVuSans-31" transform="translate(228.955078 0)"/>
      <use xlink:href="#DejaVuSans-30" transform="translate(292.578125 0)"/>
      <use xlink:href="#DejaVuSans-30" transform="translate(356.201172 0)"/>
      <use xlink:href="#DejaVuSans-31" transform="translate(419.824219 0)"/>
      <use xlink:href="#DejaVuSans-45" transform="translate(483.447266 0)"/>
      <use xlink:href="#DejaVuSans-31" transform="translate(546.630859 0)"/>
      <use xlink:href="#DejaVuSans-43" transform="translate(610.253906 0)"/>
     </g>
    </g>
   </g>
   <g id="text_23">
    <g clip-path="url(#pc536e8234d)">
     <!-- sub_1001F2C -->
     <g transform="translate(265.603439 110.01125) scale(0.1 -0.1)">
      <use xlink:href="#DejaVuSans-73"/>
      <use xlink:href="#DejaVuSans-75" transform="translate(52.099609 0)"/>
      <use xlink:href="#DejaVuSans-62" transform="translate(115.478516 0)"/>
      <use xlink:href="#DejaVuSans-5f" transform="translate(178.955078 0)"/>
      <use xlink:href="#DejaVuSans-31" transform="translate(228.955078 0)"/>
      <use xlink:href="#DejaVuSans-30" transform="translate(292.578125 0)"/>
      <use xlink:href="#DejaVuSans-30" transform="translate(356.201172 0)"/>
      <use xlink:href="#DejaVuSans-31" transform="translate(419.824219 0)"/>
      <use xlink:href="#DejaVuSans-46" transform="translate(483.447266 0)"/>
      <use xlink:href="#DejaVuSans-32" transform="translate(540.966797 0)"/>
      <use xlink:href="#DejaVuSans-43" transform="translate(604.589844 0)"/>
     </g>
    </g>
   </g>
   <g id="text_24">
    <g clip-path="url(#pc536e8234d)">
     <!-- sub_1001F7D -->
     <g transform="translate(405.42794 70.195314) scale(0.1 -0.1)">
      <use xlink:href="#DejaVuSans-73"/>
      <use xlink:href="#DejaVuSans-75" transform="translate(52.099609 0)"/>
      <use xlink:href="#DejaVuSans-62" transform="translate(115.478516 0)"/>
      <use xlink:href="#DejaVuSans-5f" transform="translate(178.955078 0)"/>
      <use xlink:href="#DejaVuSans-31" transform="translate(228.955078 0)"/>
      <use xlink:href="#DejaVuSans-30" transform="translate(292.578125 0)"/>
      <use xlink:href="#DejaVuSans-30" transform="translate(356.201172 0)"/>
      <use xlink:href="#DejaVuSans-31" transform="translate(419.824219 0)"/>
      <use xlink:href="#DejaVuSans-46" transform="translate(483.447266 0)"/>
      <use xlink:href="#DejaVuSans-37" transform="translate(540.966797 0)"/>
      <use xlink:href="#DejaVuSans-44" transform="translate(604.589844 0)"/>
     </g>
    </g>
   </g>
   <g id="text_25">
    <g clip-path="url(#pc536e8234d)">
     <!-- EnumFunc -->
     <g transform="translate(181.220243 440.192086) scale(0.1 -0.1)">
      <use xlink:href="#DejaVuSans-45"/>
      <use xlink:href="#DejaVuSans-6e" transform="translate(63.183594 0)"/>
      <use xlink:href="#DejaVuSans-75" transform="translate(126.5625 0)"/>
      <use xlink:href="#DejaVuSans-6d" transform="translate(189.941406 0)"/>
      <use xlink:href="#DejaVuSans-46" transform="translate(287.353516 0)"/>
      <use xlink:href="#DejaVuSans-75" transform="translate(339.373047 0)"/>
      <use xlink:href="#DejaVuSans-6e" transform="translate(402.751953 0)"/>
      <use xlink:href="#DejaVuSans-63" transform="translate(466.130859 0)"/>
     </g>
    </g>
   </g>
   <g id="text_26">
    <g clip-path="url(#pc536e8234d)">
     <!-- sub_10021B2 -->
     <g transform="translate(126.423673 284.876242) scale(0.1 -0.1)">
      <use xlink:href="#DejaVuSans-73"/>
      <use xlink:href="#DejaVuSans-75" transform="translate(52.099609 0)"/>
      <use xlink:href="#DejaVuSans-62" transform="translate(115.478516 0)"/>
      <use xlink:href="#DejaVuSans-5f" transform="translate(178.955078 0)"/>
      <use xlink:href="#DejaVuSans-31" transform="translate(228.955078 0)"/>
      <use xlink:href="#DejaVuSans-30" transform="translate(292.578125 0)"/>
      <use xlink:href="#DejaVuSans-30" transform="translate(356.201172 0)"/>
      <use xlink:href="#DejaVuSans-32" transform="translate(419.824219 0)"/>
      <use xlink:href="#DejaVuSans-31" transform="translate(483.447266 0)"/>
      <use xlink:href="#DejaVuSans-42" transform="translate(547.070312 0)"/>
      <use xlink:href="#DejaVuSans-32" transform="translate(615.673828 0)"/>
     </g>
    </g>
   </g>
   <g id="text_27">
    <!-- GML Directed Graph Visualization -->
    <g transform="translate(259.35 -6) scale(0.12 -0.12)">
     <defs>
      <path id="DejaVuSans-47" d="M 3809 666 
L 3809 1919 
L 2778 1919 
L 2778 2438 
L 4434 2438 
L 4434 434 
Q 4069 175 3628 42 
Q 3188 -91 2688 -91 
Q 1594 -91 976 548 
Q 359 1188 359 2328 
Q 359 3472 976 4111 
Q 1594 4750 2688 4750 
Q 3144 4750 3555 4637 
Q 3966 4525 4313 4306 
L 4313 3634 
Q 3963 3931 3569 4081 
Q 3175 4231 2741 4231 
Q 1884 4231 1454 3753 
Q 1025 3275 1025 2328 
Q 1025 1384 1454 906 
Q 1884 428 2741 428 
Q 3075 428 3337 486 
Q 3600 544 3809 666 
z
" transform="scale(0.015625)"/>
      <path id="DejaVuSans-4c" d="M 628 4666 
L 1259 4666 
L 1259 531 
L 3531 531 
L 3531 0 
L 628 0 
L 628 4666 
z
" transform="scale(0.015625)"/>
      <path id="DejaVuSans-20" transform="scale(0.015625)"/>
      <path id="DejaVuSans-56" d="M 1831 0 
L 50 4666 
L 709 4666 
L 2188 738 
L 3669 4666 
L 4325 4666 
L 2547 0 
L 1831 0 
z
" transform="scale(0.015625)"/>
      <path id="DejaVuSans-7a" d="M 353 3500 
L 3084 3500 
L 3084 2975 
L 922 459 
L 3084 459 
L 3084 0 
L 275 0 
L 275 525 
L 2438 3041 
L 353 3041 
L 353 3500 
z
" transform="scale(0.015625)"/>
     </defs>
     <use xlink:href="#DejaVuSans-47"/>
     <use xlink:href="#DejaVuSans-4d" transform="translate(77.490234 0)"/>
     <use xlink:href="#DejaVuSans-4c" transform="translate(163.769531 0)"/>
     <use xlink:href="#DejaVuSans-20" transform="translate(219.482422 0)"/>
     <use xlink:href="#DejaVuSans-44" transform="translate(251.269531 0)"/>
     <use xlink:href="#DejaVuSans-69" transform="translate(328.271484 0)"/>
     <use xlink:href="#DejaVuSans-72" transform="translate(356.054688 0)"/>
     <use xlink:href="#DejaVuSans-65" transform="translate(394.917969 0)"/>
     <use xlink:href="#DejaVuSans-63" transform="translate(456.441406 0)"/>
     <use xlink:href="#DejaVuSans-74" transform="translate(511.421875 0)"/>
     <use xlink:href="#DejaVuSans-65" transform="translate(550.630859 0)"/>
     <use xlink:href="#DejaVuSans-64" transform="translate(612.154297 0)"/>
     <use xlink:href="#DejaVuSans-20" transform="translate(675.630859 0)"/>
     <use xlink:href="#DejaVuSans-47" transform="translate(707.417969 0)"/>
     <use xlink:href="#DejaVuSans-72" transform="translate(784.908203 0)"/>
     <use xlink:href="#DejaVuSans-61" transform="translate(826.021484 0)"/>
     <use xlink:href="#DejaVuSans-70" transform="translate(887.300781 0)"/>
     <use xlink:href="#DejaVuSans-68" transform="translate(950.777344 0)"/>
     <use xlink:href="#DejaVuSans-20" transform="translate(1014.15625 0)"/>
     <use xlink:href="#DejaVuSans-56" transform="translate(1045.943359 0)"/>
     <use xlink:href="#DejaVuSans-69" transform="translate(1112.101562 0)"/>
     <use xlink:href="#DejaVuSans-73" transform="translate(1139.884766 0)"/>
     <use xlink:href="#DejaVuSans-75" transform="translate(1191.984375 0)"/>
     <use xlink:href="#DejaVuSans-61" transform="translate(1255.363281 0)"/>
     <use xlink:href="#DejaVuSans-6c" transform="translate(1316.642578 0)"/>
     <use xlink:href="#DejaVuSans-69" transform="translate(1344.425781 0)"/>
     <use xlink:href="#DejaVuSans-7a" transform="translate(1372.208984 0)"/>
     <use xlink:href="#DejaVuSans-61" transform="translate(1424.699219 0)"/>
     <use xlink:href="#DejaVuSans-74" transform="translate(1485.978516 0)"/>
     <use xlink:href="#DejaVuSans-69" transform="translate(1525.1875 0)"/>
     <use xlink:href="#DejaVuSans-6f" transform="translate(1552.970703 0)"/>
     <use xlink:href="#DejaVuSans-6e" transform="translate(1614.152344 0)"/>
    </g>
   </g>
  </g>
 </g>
 <defs>
  <clipPath id="pc536e8234d">
   <rect x="0" y="0" width="720" height="504"/>
  </clipPath>
 </defs>
</svg>
